<svg width="1145" height="1009" viewBox="0 0 1145 1009" fill="none" xmlns="http://www.w3.org/2000/svg">
<path d="M521.713 25.8301C551.439 9.71743 587.294 9.71745 617.02 25.8302L771.949 109.808C804.204 127.291 824.295 161.034 824.295 197.723V355.003C824.295 391.692 804.204 425.434 771.949 442.918L617.02 526.896C587.294 543.008 551.439 543.008 521.713 526.896L366.784 442.918C334.529 425.434 314.438 391.692 314.438 355.003V197.723C314.438 161.034 334.529 127.291 366.784 109.808L521.713 25.8301Z" fill="#797373"/>
<path d="M802.713 481.83C832.439 465.717 868.294 465.717 898.02 481.83L1052.95 565.808C1085.2 583.291 1105.3 617.034 1105.3 653.723V811.003C1105.3 847.692 1085.2 881.434 1052.95 898.918L898.02 982.896C868.294 999.008 832.439 999.008 802.713 982.896L647.784 898.918C615.529 881.434 595.438 847.692 595.438 811.003V653.723C595.438 617.034 615.529 583.291 647.784 565.808L802.713 481.83Z" fill="#C1FF72"/>
<path d="M246.713 481.83C276.439 465.717 312.294 465.717 342.02 481.83L496.949 565.808C529.204 583.291 549.295 617.034 549.295 653.723V811.003C549.295 847.692 529.204 881.434 496.949 898.918L342.02 982.896C312.294 999.008 276.439 999.008 246.713 982.896L91.7839 898.918C59.5287 881.434 39.4376 847.692 39.4376 811.003V653.723C39.4376 617.034 59.5287 583.291 91.784 565.808L246.713 481.83Z" fill="#797373"/>
</svg>
